<svg xmlns="http://www.w3.org/2000/svg" width="466.374" height="159.248" viewBox="1583.983 9619.819 466.374 159.248"><path d="M2049.983 9683.162a965.699 965.699 0 0 0-7.61-10.464c-10.174-13.69-21.217-27.007-34.989-37.181-14.144-10.505-31.184-16.585-48.927-15.592-9.223.537-18.322 2.812-26.676 6.741-8.355 3.97-15.675 9.72-22.623 15.716-6.99 5.997-13.69 12.367-21.3 17.578-7.61 5.21-16.047 8.892-24.98 11.084-18.28 4.508-37.388 3.35-56 3.019-17.742-.331-35.444.165-52.69 4.963-31.143 8.644-57.985 27.669-84 46.115-26.427 18.776-53.352 38.256-84.701 47.851-1.613.455-2.15 2.937-.497 3.764 1.407.703 2.771 1.365 4.178 2.068 2.357 1.2 4.466-2.358 2.068-3.557-1.407-.703-2.771-1.365-4.178-2.068-.165 1.24-.33 2.523-.496 3.764a145.799 145.799 0 0 0 11.084-3.805c30.068-11.663 55.958-31.35 82.138-49.754 25.725-18.074 52.856-36.024 84.164-42.476 18.033-3.722 36.479-2.812 54.759-2.481 17.908.33 36.437.248 53.518-5.873 8.396-3.02 15.964-7.486 22.995-12.945 7.114-5.542 13.648-11.787 20.597-17.536 7.279-5.956 15.095-11.208 24.029-14.31a68.994 68.994 0 0 1 27.172-3.64c36.189 2.482 59.97 34.038 79.367 61.087 1.572 2.15 5.129.082 3.598-2.068Z" fill="#fff" fill-rule="evenodd" data-name="Vector"/></svg>