<svg xmlns="http://www.w3.org/2000/svg" width="784.17" height="267.763" viewBox="-242.291 698.6 784.17 267.763"><path d="M-241.662 805.105a1623.985 1623.985 0 0 1 12.796-17.594c17.107-23.018 35.674-45.41 58.831-62.517 23.783-17.663 52.434-27.886 82.267-26.217 15.508.904 30.806 4.729 44.854 11.335 14.047 6.676 26.356 16.342 38.039 26.426 11.752 10.083 23.018 20.792 35.813 29.555 12.796 8.762 26.982 14.95 42.003 18.636 30.737 7.58 62.865 5.633 94.158 5.077 29.833-.556 59.596.278 88.595 8.345 52.364 14.534 97.496 46.523 141.237 77.538 44.437 31.571 89.708 64.325 142.42 80.459 2.712.765 3.616 4.937.835 6.328-2.365 1.182-4.66 2.295-7.024 3.477-3.964 2.017-7.51-3.964-3.477-5.98 2.364-1.183 4.66-2.296 7.023-3.478.279 2.086.557 4.242.835 6.328-6.328-1.877-12.517-4.033-18.637-6.397-50.556-19.61-94.089-52.712-138.108-83.658-43.254-30.39-88.873-60.57-141.516-71.418-30.32-6.259-61.335-4.73-92.072-4.173-30.11.557-61.265.417-89.985-9.875-14.117-5.076-26.843-12.586-38.665-21.766-11.961-9.318-22.949-19.819-34.632-29.485-12.239-10.014-25.382-18.846-40.403-24.061a116.008 116.008 0 0 0-45.688-6.12c-60.848 4.173-100.834 57.232-133.449 102.712-2.642 3.616-8.623.139-6.05-3.477Z" fill="#fff" fill-rule="evenodd" data-name="Vector"/></svg>