<svg xmlns="http://www.w3.org/2000/svg" width="753.969" height="188.425" viewBox="1298 9604 753.969 188.425"><path d="M2051.886 9653.26c-3.846-4.55-7.94-8.893-12.324-12.904-36.106-33.128-87.887-44.792-134.622-30.11-24.236 7.61-44.46 21.797-62.286 39.622-18.57 18.57-35.444 39.084-58.605 52.236-50.457 28.62-110.758 23.285-166.343 20.265-55.834-3.06-111.337.331-165.93 12.325a585.217 585.217 0 0 0-153.647 57.24c-.29.166-.041.62.248.455a565.079 565.079 0 0 1 17.908-9.347c49.01-24.484 101.535-41.937 155.425-51.863a584.881 584.881 0 0 1 82.262-9.182c28.744-1.116 57.323.538 86.026 2.11 52.07 2.812 109.186 3.184 153.977-27.628 20.72-14.269 36.354-34.369 54.47-51.574 19.065-18.115 41.688-31.226 67.455-37.098 49.837-11.333 102.775 6.782 135.655 45.825.207.248.58-.124.331-.373Z" fill="#fff" fill-rule="evenodd" data-name="Vector"/></svg>